<svg xmlns="http://www.w3.org/2000/svg" viewBox="0 0 1000 423.84"><defs><style>.cls-1{fill:#fff;}</style></defs><g id="Layer_2" data-name="Layer 2"><g id="Yabie_Logotype" data-name="Yabie Logotype"><rect class="cls-1" x="694.93" y="102.9" width="65.73" height="223.93"/><path class="cls-1" d="M305.53,97.46c-44,0-130.56,7.25-180.42,155.94L69.36,102.9H0L91.11,326.38l-4.53,10.88c-9.07,22.21-23.57,29-43.06,29a58,58,0,0,1-25.39-5.44v54.85c7.71,4.08,20,8.16,37.17,8.16,42.16,0,72.08-23.57,95.65-81.14l35.81-88.4c24.93-61.19,59.38-101.54,113.78-101.54,29,0,44,13.15,44,30.37v3.18L290.57,194c-54.4,7.71-81.6,32.64-81.6,73,0,38.52,26.29,65.27,70.72,65.27,27.2,0,53.49-9.07,67.09-32.64v27.2h60.74V193.56C407.52,135.54,369.89,97.46,305.53,97.46Zm39,142.79c0,25.38-19,43.06-46.24,43.06-16.32,0-27.2-8.16-27.2-21.3,0-14,10.43-21.76,32.19-24.93l41.25-5.9Z"/><path class="cls-1" d="M728,0a38.4,38.4,0,0,0-38.53,38.08,38.3,38.3,0,0,0,76.6,0A38.3,38.3,0,0,0,728,0Z"/><path class="cls-1" d="M1000,211.24c0-70.72-42.16-113.78-110.6-113.78-58,0-111.06,46.24-111.06,117,0,73.89,54.39,117.86,115.59,117.86,55.75,0,91.11-31.73,102-70.26l-55.76-15.87c-6.8,17.23-20.39,29-45.33,29-26.74,0-49.4-17.67-50.77-43.51h155C999.55,229.37,1000,220.3,1000,211.24ZM845.43,189c.9-16.78,15.86-38.53,44.42-38.53,32.18,0,44.42,20.85,45.33,38.53Z"/><path class="cls-1" d="M571.17,97.46c-29.46,0-56.66,11.78-72.53,35.36V9.52H433.37V326.83h65.27v-29c15.87,23.57,43.07,34.45,72.53,34.45,59.84,0,106.07-51.22,106.07-117.41C677.24,148.23,631,97.46,571.17,97.46ZM554.4,273.34c-32.64,0-58-25.84-58-58.48s25.38-58.47,58-58.47,58,25.84,58,58.47S587,273.34,554.4,273.34Z"/></g></g></svg>